<?xml version="1.0" encoding="UTF-8" standalone="no"?>
<!DOCTYPE svg PUBLIC "-//W3C//DTD SVG 1.1//EN" "http://www.w3.org/Graphics/SVG/1.1/DTD/svg11.dtd">
<svg width="100%" height="100%" viewBox="0 0 1722 2017" version="1.1" xmlns="http://www.w3.org/2000/svg"
    xmlns:xlink="http://www.w3.org/1999/xlink" xml:space="preserve" xmlns:serif="http://www.serif.com/"
    style="fill-rule:evenodd;clip-rule:evenodd;stroke-linecap:round;stroke-linejoin:round;stroke-miterlimit:1.5;">
    <g transform="matrix(1,0,0,1,-139.16209,8.333333)">
        <g transform="matrix(0.818556,0,0,0.818556,-27.835649,-13.35409)">
            <g transform="matrix(0.707107,-0.707107,0.707107,0.707107,-1498.988794,2167.858267)">
                <path
                    d="M2508.366,620.079L2508.366,1270.684C2508.366,1384.209 2416.198,1476.378 2302.672,1476.378L2300.675,1476.378C2187.149,1476.378 2094.98,1384.209 2094.98,1270.684L2094.98,1033.465C2094.98,805.311 2280.212,620.079 2508.366,620.079Z"
                    style="fill:none;stroke:white;stroke-width:20.36px;" />
            </g>
            <g transform="matrix(0.845249,-0.845249,0.726305,0.726305,128.539997,832.637397)">
                <path
                    d="M0,201.23C0,90.168 77.479,0 172.912,0L894.204,0C989.637,0 1067.116,90.168 1067.116,201.23C1067.116,312.291 989.637,402.459 894.204,402.459L345.825,402.459C154.959,402.459 0,582.795 0,804.918L0,201.23Z"
                    style="fill:none;stroke:white;stroke-width:18.27px;" />
            </g>
        </g>
        <g transform="matrix(0.818556,0,0,0.818556,-905.51099,213.409023)">
            <g transform="matrix(-0.707107,0.707107,-0.707107,-0.707107,5082.550625,31.0685)">
                <path
                    d="M2508.366,620.079L2508.366,1270.684C2508.366,1384.209 2416.198,1476.378 2302.672,1476.378L2300.675,1476.378C2187.149,1476.378 2094.98,1384.209 2094.98,1270.684L2094.98,1033.465C2094.98,805.311 2280.212,620.079 2508.366,620.079Z"
                    style="fill:none;stroke:white;stroke-width:20.36px;" />
            </g>
            <g transform="matrix(-0.845249,0.845249,-0.726305,-0.726305,3455.021834,1366.28937)">
                <path
                    d="M0,201.23C0,90.168 77.479,0 172.912,0L894.204,0C989.637,0 1067.116,90.168 1067.116,201.23C1067.116,312.291 989.637,402.459 894.204,402.459L345.825,402.459C154.959,402.459 0,582.795 0,804.918L0,201.23Z"
                    style="fill:none;stroke:white;stroke-width:18.27px;" />
            </g>
        </g>
        <g transform="matrix(0.592538,0.189147,-0.292722,0.917008,732.547464,-430.049907)">
            <path
                d="M1381.711,428.687L1381.711,2236.548C1381.711,2333.555 1259.827,2412.312 1109.699,2412.312C959.572,2412.312 837.688,2333.555 837.688,2236.548L837.688,428.687C837.688,331.68 959.572,252.923 1109.699,252.923C1259.827,252.923 1381.711,331.68 1381.711,428.687Z"
                style="fill:white;" />
        </g>
    </g>
</svg>